#!OML:ASF H:\MichaelJackson\Top Level 1\Subject 1\Session 1\male.ASF
:FULLY-SPECIFIED
:DEGREES
877
root 9.23138 17.4302 31.5417 -178.107 -190.534 -180.596
lowerback 1.64924 1.59781 0.945368
upperback 5.32445 2.13312 0.10168
thorax 4.59614 1.10621 -0.371771
lowerneck -16.3496 -1.52746 0.867101
upperneck 19.3896 -2.0576 -1.16044
head 8.73503 -1.01865 -0.786299
rclavicle 2.28478e-014 -5.66536e-015
rhumerus -58.6969 37.6129 -33.4959
rradius 35.8351
rwrist -20.8967
rhand 75.6545 -26.7912
rfingers 7.12502
rthumb 70.7262 -303.525
lclavicle 2.28478e-014 -5.66536e-015
lhumerus -43.3626 -50.1521 29.0518
lradius 68.6451
lwrist 59.2391
lhand 56.9571 67.9265
lfingers 7.12502
lthumb 73.672 45.7308
rfemur -30.6215 23.7248 9.64351
rtibia 58.514
rfoot 35.8469 6.11701
rtoes 44.6379
lfemur -33.3625 -27.2288 -1.4123
ltibia 54.7007
lfoot 45.0311 -21.5069
ltoes 32.9986
878
root 9.21952 17.4381 31.5234 -177.961 -190.608 -180.662
lowerback 1.59558 1.57076 1.04077
upperback 5.29006 2.09519 0.104122
thorax 4.59349 1.091 -0.422442
lowerneck -16.3923 -1.57708 0.848513
upperneck 19.5337 -2.11966 -1.16719
head 8.79138 -1.04903 -0.794967
rclavicle -4.12478e-015 -2.18663e-014
rhumerus -58.2088 37.3492 -33.6416
rradius 35.8356
rwrist -21.0455
rhand 75.5093 -26.7696
rfingers 7.12502
rthumb 70.8158 -303.831
lclavicle -4.12478e-015 -2.18663e-014
lhumerus -43.756 -50.1847 29.9907
lradius 68.4427
lwrist 57.0546
lhand 61.2886 66.1107
lfingers 7.12502
lthumb 74.8307 29.0566
rfemur -30.7764 23.6552 9.66011
rtibia 58.41
rfoot 35.7393 6.10559
rtoes 44.4533
lfemur -33.627 -27.4231 -1.15362
ltibia 54.579
lfoot 45.0594 -21.5388
ltoes 32.796
879
root 9.20887 17.4478 31.5054 -177.798 -190.648 -180.731
lowerback 1.53637 1.5626 1.15954
upperback 5.237 2.08226 0.0995798
thorax 4.57598 1.08919 -0.492944
lowerneck -16.435 -1.6257 0.834562
upperneck 19.6344 -2.18414 -1.16327
head 8.83302 -1.07927 -0.800714
rclavicle -7.98866e-015 -2.32578e-014
rhumerus -57.8372 37.0961 -33.8349
rradius 35.9391
rwrist -21.4161
rhand 75.3591 -26.8277
rfingers 7.12502
rthumb 70.9078 -304.231
lclavicle -7.98866e-015 -2.32578e-014
lhumerus -43.9947 -50.109 30.7007
lradius 68.3793
lwrist 55.7325
lhand 64.2656 64.799
lfingers 7.12502
lthumb 74.9573 16.7063
rfemur -30.9818 23.5938 9.67197
rtibia 58.3067
rfoot 35.7358 6.05358
rtoes 44.3426
lfemur -33.8918 -27.5831 -0.923407
ltibia 54.4836
lfoot 45.0515 -21.4892
ltoes 32.5691
880
root 9.19875 17.4592 31.4874 -177.635 -190.649 -180.793
lowerback 1.48461 1.57535 1.28175
upperback 5.17565 2.09748 0.0879575
thorax 4.54656 1.10154 -0.572317
lowerneck -16.4722 -1.6726 0.821667
upperneck 19.6727 -2.24959 -1.14646
head 8.85251 -1.10885 -0.801717
rclavicle -1.22625e-014 -1.10325e-014
rhumerus -57.5807 36.8759 -34.077
rradius 36.123
rwrist -21.9173
rhand 75.2117 -26.9001
rfingers 7.12502
rthumb 70.9974 -304.642
lclavicle -1.22625e-014 -1.10325e-014
lhumerus -44.0867 -49.9656 31.1818
lradius 68.4618
lwrist 55.4502
lhand 65.2946 64.3574
lfingers 7.12502
lthumb 74.8677 12.4615
rfemur -31.221 23.5459 9.67783
rtibia 58.205
rfoot 35.8399 5.952
rtoes 44.3079
lfemur -34.1272 -27.681 -0.744428
ltibia 54.4107
lfoot 44.9985 -21.3589
ltoes 32.333
881
root 9.18857 17.4718 31.4693 -177.483 -190.614 -180.834
lowerback 1.45009 1.60548 1.38269
upperback 5.11541 2.13659 0.0704768
thorax 4.50861 1.12494 -0.645725
lowerneck -16.4836 -1.71841 0.804175
upperneck 19.6291 -2.31465 -1.11919
head 8.83946 -1.13795 -0.797208
rclavicle -2.80411e-014 9.88954e-015
rhumerus -57.4162 36.7043 -34.3477
rradius 36.3594
rwrist -22.4249
rhand 75.0767 -26.9791
rfingers 7.12502
rthumb 71.0788 -305.035
lclavicle -2.80411e-014 9.88954e-015
lhumerus -44.0659 -49.7947 31.4662
lradius 68.6637
lwrist 56.162
lhand 64.2882 64.8946
lfingers 7.12502
lthumb 74.9561 16.7181
rfemur -31.4702 23.5144 9.67177
rtibia 58.1053
rfoot 36.0371 5.80218
rtoes 44.339
lfemur -34.3059 -27.708 -0.638646
ltibia 54.3529
lfoot 44.8894 -21.1631
ltoes 32.0946
882
root 9.17781 17.4851 31.4511 -177.355 -190.551 -180.847
lowerback 1.4386 1.64745 1.44536
upperback 5.06403 2.19239 0.0505677
thorax 4.46604 1.15514 -0.700379
lowerneck -16.4808 -1.76023 0.782747
upperneck 19.5199 -2.37454 -1.0857
head 8.80167 -1.16469 -0.788435
rclavicle 1.1368e-014 2.5345e-015
rhumerus -57.3115 36.5903 -34.6261
rradius 36.6152
rwrist -22.8286
rhand 74.9565 -26.9972
rfingers 7.12502
rthumb 71.1508 -305.334
lclavicle 1.1368e-014 2.5345e-015
lhumerus -43.9922 -49.6326 31.6071
lradius 68.9399
lwrist 57.6074
lhand 61.7318 66.1143
lfingers 7.12502
lthumb 74.8857 27.435
rfemur -31.7076 23.5083 9.65504
rtibia 58.0079
rfoot 36.3015 5.60369
rtoes 44.4302
lfemur -34.4098 -27.6632 -0.609738
ltibia 54.3013
lfoot 44.7199 -20.9233
ltoes 31.8517
883
root 9.1664 17.4984 31.4332 -177.26 -190.472 -180.831
lowerback 1.45033 1.69299 1.46348
upperback 5.02693 2.25386 0.0308446
thorax 4.4237 1.18644 -0.730329
lowerneck -16.4601 -1.79788 0.755724
upperneck 19.354 -2.42706 -1.05204
head 8.7415 -1.18878 -0.776953
rclavicle 1.03617e-014 8.94531e-016
rhumerus -57.2361 36.5391 -34.8889
rradius 36.8698
rwrist -23.0684
rhand 74.8563 -26.9477
rfingers 7.12502
rthumb 71.2105 -305.521
lclavicle 1.03617e-014 8.94531e-016
lhumerus -43.9075 -49.5198 31.654
lradius 69.2284
lwrist 59.4053
lhand 58.3941 67.5865
lfingers 7.12502
lthumb 74.1749 40.718
rfemur -31.9099 23.5276 9.628
rtibia 57.9128
rfoot 36.5947 5.37508
rtoes 44.5571
lfemur -34.4333 -27.5649 -0.651528
ltibia 54.2463
lfoot 44.5 -20.6554
ltoes 31.6235
884
root 9.15436 17.5113 31.4157 -177.202 -190.397 -180.796
lowerback 1.48124 1.73439 1.44262
upperback 5.00629 2.31034 0.0165397
thorax 4.38577 1.21373 -0.733436
lowerneck -16.4398 -1.82834 0.732448
upperneck 19.1625 -2.4675 -1.03233
head 8.67269 -1.20863 -0.769061
rclavicle -1.58282e-014 1.3418e-014
rhumerus -57.1689 36.5427 -35.1114
rradius 37.1094
rwrist -23.1445
rhand 74.7711 -26.8393
rfingers 7.12502
rthumb 71.261 -305.615
lclavicle -1.58282e-014 1.3418e-014
lhumerus -43.8671 -49.4766 31.6634
lradius 69.4882
lwrist 61.127
lhand 55.085 68.9535
lfingers 7.12502
lthumb 72.8617 52.3756
rfemur -32.0611 23.5731 9.59774
rtibia 57.8199
rfoot 36.8727 5.1439
rtoes 44.6798
lfemur -34.3841 -27.4354 -0.741606
ltibia 54.1791
lfoot 44.2494 -20.3804
ltoes 31.428
885
root 9.14179 17.523 31.3988 -177.178 -190.341 -180.743
lowerback 1.52483 1.76567 1.38807
upperback 5.00121 2.35367 0.00734084
thorax 4.3549 1.23319 -0.712999
lowerneck -16.4267 -1.8578 0.706161
upperneck 18.9699 -2.50475 -1.01725
head 8.60503 -1.22772 -0.761921
rclavicle -4.01794e-014 7.8023e-015
rhumerus -57.0995 36.5978 -35.2874
rradius 37.3214
rwrist -23.1187
rhand 74.701 -26.6939
rfingers 7.12502
rthumb 71.3023 -305.636
lclavicle -4.01794e-014 7.8023e-015
lhumerus -43.8888 -49.517 31.665
lradius 69.6717
lwrist 62.4067
lhand 52.5275 69.9523
lfingers 7.12502
lthumb 71.5112 60.1436
rfemur -32.1575 23.6367 9.56101
rtibia 57.7292
rfoot 37.1082 4.93493
rtoes 44.7858
lfemur -34.2804 -27.3013 -0.85913
ltibia 54.0924
lfoot 43.9868 -20.1206
ltoes 31.2756
886
root 9.12901 17.5333 31.3826 -177.18 -190.316 -180.675
lowerback 1.57526 1.78463 1.308
upperback 5.00597 2.38079 0.000773548
thorax 4.32876 1.24364 -0.676107
lowerneck -16.414 -1.89097 0.682551
upperneck 18.7919 -2.5462 -1.00928
head 8.54233 -1.24925 -0.75826
rclavicle -7.43206e-014 -4.62174e-015
rhumerus -57.0358 36.6972 -35.416
rradius 37.5055
rwrist -23.0801
rhand 74.6289 -26.5632
rfingers 7.12502
rthumb 71.3447 -305.678
lclavicle -7.43206e-014 -4.62174e-015
lhumerus -43.9682 -49.657 31.6676
lradius 69.7618
lwrist 63.0428
lhand 51.0888 70.5089
lfingers 7.12502
lthumb 70.6475 64.0586
rfemur -32.2034 23.7043 9.51255
rtibia 57.6408
rfoot 37.2852 4.78947
rtoes 44.84
lfemur -34.1438 -27.1865 -0.985827
ltibia 53.9796
lfoot 43.7343 -19.9059
ltoes 31.1585
887
root 9.11627 17.542 31.3673 -177.2 -190.328 -180.608
lowerback 1.62588 1.79207 1.22343
upperback 5.0147 2.39241 -0.0026272
thorax 4.30592 1.24619 -0.633773
lowerneck -16.4203 -1.92776 0.66697
upperneck 18.6535 -2.594 -1.005
head 8.49637 -1.27333 -0.758563
rclavicle 2.73329e-015 1.81888e-014
rhumerus -56.9735 36.8183 -35.4863
rradius 37.6516
rwrist -23.0809
rhand 74.5711 -26.4869
rfingers 7.12502
rthumb 71.3785 -305.741
lclavicle 2.73329e-015 1.81888e-014
lhumerus -44.083 -49.8796 31.6599
lradius 69.7601
lwrist 62.9919
lhand 50.8377 70.6315
lfingers 7.12502
lthumb 70.4901 64.7357
rfemur -32.2114 23.7668 9.46106
rtibia 57.5528
rfoot 37.4098 4.71829
rtoes 44.8434
lfemur -33.9972 -27.1039 -1.09066
ltibia 53.8352
lfoot 43.5103 -19.7567
ltoes 31.0829
888
root 9.10378 17.549 31.3528 -177.226 -190.377 -180.541
lowerback 1.66855 1.78995 1.14159
upperback 5.02172 2.39112 -0.00690837
thorax 4.28566 1.24244 -0.593935
lowerneck -16.4298 -1.96997 0.66234
upperneck 18.5469 -2.65209 -1.00042
head 8.46153 -1.30124 -0.762149
rclavicle 1.90833e-014 -1.94809e-014
rhumerus -56.9132 36.9444 -35.4904
rradius 37.7604
rwrist -23.1438
rhand 74.5098 -26.4666
rfingers 7.12502
rthumb 71.4142 -305.868
lclavicle 1.90833e-014 -1.94809e-014
lhumerus -44.1865 -50.1573 31.6032
lradius 69.682
lwrist 62.3589
lhand 51.6301 70.3788
lfingers 7.12502
lthumb 70.9804 62.7013
rfemur -32.1962 23.8121 9.40183
rtibia 57.4602
rfoot 37.501 4.7145
rtoes 44.7927
lfemur -33.8559 -27.0614 -1.16356
ltibia 53.6529
lfoot 43.3207 -19.6923
ltoes 31.0272
889
root 9.09166 17.5549 31.339 -177.251 -190.458 -180.476
lowerback 1.6996 1.78282 1.06736
upperback 5.02283 2.38296 -0.013394
thorax 4.26611 1.23561 -0.560479
lowerneck -16.4375 -2.01749 0.660558
upperneck 18.4732 -2.72045 -0.985099
head 8.43756 -1.33245 -0.764131
rclavicle -7.04692e-014 1.98785e-014
rhumerus -56.8489 37.0586 -35.4165
rradius 37.8261
rwrist -23.2386
rhand 74.4419 -26.51
rfingers 7.12502
rthumb 71.4537 -306.076
lclavicle -7.04692e-014 1.98785e-014
lhumerus -44.2295 -50.446 31.4566
lradius 69.5466
lwrist 61.3443
lhand 53.1512 69.8454
lfingers 7.12502
lthumb 71.8637 58.4819
rfemur -32.1673 23.8308 9.33613
rtibia 57.3535
rfoot 37.5896 4.76812
rtoes 44.6969
lfemur -33.723 -27.0558 -1.19918
ltibia 53.4252
lfoot 43.1734 -19.7054
ltoes 31.0014
